 <svg xmlns="http://www.w3.org/2000/svg" width="31.975" height="32.013" viewBox="0 0 31.975 32.013">
    <g id="Icon_akar-thumbs-up" data-name="Icon akar-thumbs-up" transform="translate(-1.993 -1.99)">
    <path id="Path_14" data-name="Path 14" d="M17.407,8.673l.345-3.554a2.285,2.285,0,0,1,2.817-2.049,4.684,4.684,0,0,1,3.45,4.566v4.552a3.96,3.96,0,0,0,.219,1.89,1.514,1.514,0,0,0,.5.517,3.615,3.615,0,0,0,1.83.226h.594c2.555,0,3.831,0,4.617.585a3.115,3.115,0,0,1,1.17,1.812c.219.975-.271,2.194-1.254,4.63l-.489,1.215a4.892,4.892,0,0,0-.339,2.22,7.017,7.017,0,0,1-7.25,7.7l-15.636-.9c-1.708-.1-2.562-.147-3.333-.83S3.73,29.875,3.441,28.47a21.486,21.486,0,0,1,.082-9.056,3.547,3.547,0,0,1,4.059-2.64,8.854,8.854,0,0,0,9.825-8.1Z" fill="#fff" stroke="#222" stroke-linecap="round" stroke-linejoin="round" stroke-width="2"/>
    <path id="Path_15" data-name="Path 15" d="M10.5,17.25l-.205.685A22.475,22.475,0,0,0,10.5,31.5" fill="#fff" stroke="#222" stroke-linecap="round" stroke-linejoin="round" stroke-width="2"/>
    </g>
</svg>