<svg xmlns="http://www.w3.org/2000/svg" width="38" height="33.5" viewBox="0 0 38 33.5">
<path id="Icon_fa-solid-film" data-name="Icon fa-solid-film" d="M0,6.75a4.5,4.5,0,0,1,4.5-4.5h27A4.5,4.5,0,0,1,36,6.75v22.5a4.5,4.5,0,0,1-4.5,4.5H4.5A4.5,4.5,0,0,1,0,29.25ZM3.375,25.875v2.25A1.128,1.128,0,0,0,4.5,29.25H6.75a1.128,1.128,0,0,0,1.125-1.125v-2.25A1.128,1.128,0,0,0,6.75,24.75H4.5A1.128,1.128,0,0,0,3.375,25.875ZM29.25,24.75a1.128,1.128,0,0,0-1.125,1.125v2.25A1.128,1.128,0,0,0,29.25,29.25H31.5a1.128,1.128,0,0,0,1.125-1.125v-2.25A1.128,1.128,0,0,0,31.5,24.75ZM3.375,16.875v2.25A1.128,1.128,0,0,0,4.5,20.25H6.75a1.128,1.128,0,0,0,1.125-1.125v-2.25A1.128,1.128,0,0,0,6.75,15.75H4.5A1.128,1.128,0,0,0,3.375,16.875ZM29.25,15.75a1.128,1.128,0,0,0-1.125,1.125v2.25A1.128,1.128,0,0,0,29.25,20.25H31.5a1.128,1.128,0,0,0,1.125-1.125v-2.25A1.128,1.128,0,0,0,31.5,15.75ZM3.375,7.875v2.25A1.128,1.128,0,0,0,4.5,11.25H6.75a1.128,1.128,0,0,0,1.125-1.125V7.875A1.128,1.128,0,0,0,6.75,6.75H4.5A1.128,1.128,0,0,0,3.375,7.875ZM29.25,6.75a1.128,1.128,0,0,0-1.125,1.125v2.25A1.128,1.128,0,0,0,29.25,11.25H31.5a1.128,1.128,0,0,0,1.125-1.125V7.875A1.128,1.128,0,0,0,31.5,6.75ZM11.25,9v4.5a2.248,2.248,0,0,0,2.25,2.25h9a2.248,2.248,0,0,0,2.25-2.25V9A2.248,2.248,0,0,0,22.5,6.75h-9A2.248,2.248,0,0,0,11.25,9ZM13.5,20.25a2.248,2.248,0,0,0-2.25,2.25V27a2.248,2.248,0,0,0,2.25,2.25h9A2.248,2.248,0,0,0,24.75,27V22.5a2.248,2.248,0,0,0-2.25-2.25Z" transform="translate(1 -1.25)" fill="#fff" stroke="#222" stroke-width="2"/>
</svg>