<svg xmlns="http://www.w3.org/2000/svg" width="38" height="33.5" viewBox="0 0 38 33.5">
<path id="Icon_fa-solid-chart-line" data-name="Icon fa-solid-chart-line" d="M4.5,4.5A2.25,2.25,0,0,0,0,4.5V28.125A5.623,5.623,0,0,0,5.625,33.75H33.75a2.25,2.25,0,0,0,0-4.5H5.625A1.128,1.128,0,0,1,4.5,28.125Zm28.589,6.089A2.252,2.252,0,1,0,29.9,7.4l-7.4,7.411-4.036-4.036a2.253,2.253,0,0,0-3.185,0L7.4,18.654a2.252,2.252,0,0,0,3.185,3.185l6.286-6.279L20.911,19.6a2.253,2.253,0,0,0,3.185,0l9-9Z" transform="translate(1 -1.25)" fill="#fff" stroke="#222" stroke-width="2"/>
</svg>